<svg fill="#000000" xmlns="http://www.w3.org/2000/svg" viewBox="0 0 24 24" width="48px" height="48px"><path d="M 12 4 C 11.085938 4 10.179688 4.019531 9.28125 4.0625 C 8.214844 4.109375 7.164063 4.203125 6.09375 4.34375 C 5.046875 4.480469 3.90625 4.699219 3.125 5.46875 C 2.390625 6.191406 2.1875 7.195313 2.09375 8.1875 C 2.078125 8.351563 2.039063 8.523438 2.03125 8.6875 C 2.023438 8.800781 2.035156 8.917969 2.03125 9.03125 C 2.007813 9.597656 1.984375 10.152344 2 10.71875 C 2 10.761719 2 10.800781 2 10.84375 C 2.019531 11.441406 2.058594 12.027344 2.09375 12.625 C 2.148438 13.503906 2.257813 14.410156 2.40625 15.28125 C 2.476563 15.695313 2.550781 16.09375 2.65625 16.5 C 2.804688 17.085938 3 17.683594 3.34375 18.1875 C 3.675781 18.671875 4.152344 19.007813 4.6875 19.25 C 5.386719 19.566406 6.164063 19.671875 6.9375 19.75 C 7.417969 19.796875 7.902344 19.847656 8.375 19.875 C 8.476563 19.882813 8.582031 19.871094 8.6875 19.875 C 9.1875 19.902344 9.6875 19.953125 10.1875 19.96875 C 10.238281 19.972656 10.292969 19.964844 10.34375 19.96875 C 10.898438 19.988281 11.445313 19.996094 12 20 C 12.554688 19.996094 13.101563 19.988281 13.65625 19.96875 C 14.207031 19.945313 14.761719 19.90625 15.3125 19.875 C 15.417969 19.867188 15.523438 19.882813 15.625 19.875 C 16.097656 19.847656 16.582031 19.796875 17.0625 19.75 C 17.835938 19.671875 18.613281 19.566406 19.3125 19.25 C 19.847656 19.007813 20.324219 18.671875 20.65625 18.1875 C 21 17.683594 21.195313 17.085938 21.34375 16.5 C 21.445313 16.101563 21.523438 15.6875 21.59375 15.28125 C 21.746094 14.402344 21.847656 13.511719 21.90625 12.625 C 21.945313 12.027344 21.980469 11.441406 22 10.84375 C 22 10.78125 22 10.71875 22 10.65625 C 22.015625 10.113281 21.992188 9.574219 21.96875 9.03125 C 21.964844 8.917969 21.976563 8.804688 21.96875 8.6875 C 21.957031 8.523438 21.921875 8.351563 21.90625 8.1875 C 21.8125 7.195313 21.609375 6.191406 20.875 5.46875 C 20.09375 4.699219 18.957031 4.480469 17.90625 4.34375 C 16.835938 4.203125 15.785156 4.109375 14.71875 4.0625 C 13.816406 4.015625 12.90625 4 12 4 Z M 12 6 C 13.394531 6 14.746094 6.066406 16.09375 6.1875 C 15.726563 7.566406 15.332031 9.109375 14.96875 10.375 C 14.617188 11.601563 14.234375 13.1875 12.71875 13.34375 C 12.492188 13.367188 12.242188 13.402344 12 13.40625 C 11.757813 13.402344 11.507813 13.367188 11.28125 13.34375 C 9.761719 13.1875 9.382813 11.601563 9.03125 10.375 C 8.671875 9.109375 8.273438 7.566406 7.90625 6.1875 C 9.253906 6.066406 10.605469 6 12 6 Z M 5.9375 6.4375 C 5.960938 7.535156 6.015625 8.625 6.0625 9.71875 C 6.230469 12.394531 6.421875 15.058594 6.75 17.71875 C 6.421875 17.65625 6.117188 17.558594 5.84375 17.4375 L 5.8125 17.4375 C 5.453125 17.28125 5.195313 17.078125 5.03125 16.84375 C 4.828125 16.554688 4.683594 16.144531 4.5625 15.6875 C 4.296875 14.675781 4.167969 13.601563 4.09375 12.5 C 4.019531 11.355469 3.964844 10.234375 4.03125 9.15625 C 4.089844 8.214844 4.253906 7.445313 4.71875 7 C 4.996094 6.734375 5.425781 6.558594 5.9375 6.4375 Z M 18.0625 6.4375 C 18.574219 6.558594 19.003906 6.734375 19.28125 7 C 19.746094 7.445313 19.910156 8.214844 19.96875 9.15625 C 20.035156 10.234375 19.980469 11.355469 19.90625 12.5 C 19.832031 13.601563 19.703125 14.671875 19.4375 15.6875 C 19.316406 16.144531 19.175781 16.550781 18.96875 16.84375 C 18.804688 17.078125 18.519531 17.277344 18.15625 17.4375 C 17.882813 17.558594 17.578125 17.65625 17.25 17.71875 C 17.578125 15.058594 17.769531 12.394531 17.9375 9.71875 C 17.984375 8.625 18.039063 7.535156 18.0625 6.4375 Z M 12 15.40625 C 12.355469 15.410156 12.722656 15.441406 13.03125 15.5 C 13.960938 15.679688 13.980469 15.773438 14.34375 16.9375 C 14.34375 16.9375 14.503906 17.453125 14.65625 17.9375 C 13.773438 17.980469 12.882813 17.996094 12 18 C 11.117188 17.996094 10.226563 17.980469 9.34375 17.9375 C 9.496094 17.453125 9.65625 16.9375 9.65625 16.9375 C 10.019531 15.773438 10.039063 15.679688 10.96875 15.5 C 11.277344 15.441406 11.644531 15.410156 12 15.40625 Z"/></svg>